<svg xmlns="http://www.w3.org/2000/svg" viewBox="0 0 180 140" role="img" aria-labelledby="title" data-component="esp-01" data-model="esp-01"><title id="title">ESP-01 — GUBI component illustration</title><defs><linearGradient id="metal" x2="0.8" y2="1"><stop stop-color="#e1e5df"/><stop offset=".45" stop-color="#8d9da3"/><stop offset="1" stop-color="#bcc8c8"/></linearGradient><linearGradient id="plastic" x2=".7" y2="1"><stop stop-color="#48535b"/><stop offset="1" stop-color="#1e272e"/></linearGradient></defs><rect x="44" y="17" width="92" height="105" rx="5" fill="#273d4c" stroke="#60978c"/><path d="M56 31H122V107H59" stroke="#ffffff12" stroke-width="1" fill="none" stroke-linecap="round" stroke-linejoin="round"/><circle cx="52" cy="25" r="3.5" fill="#c6af71" stroke="none" stroke-width="1"/><circle cx="52" cy="25" r="1.8" fill="#182c2b" stroke="none" stroke-width="1"/><circle cx="128" cy="25" r="3.5" fill="#c6af71" stroke="none" stroke-width="1"/><circle cx="128" cy="25" r="1.8" fill="#182c2b" stroke="none" stroke-width="1"/><circle cx="52" cy="114" r="3.5" fill="#c6af71" stroke="none" stroke-width="1"/><circle cx="52" cy="114" r="1.8" fill="#182c2b" stroke="none" stroke-width="1"/><circle cx="128" cy="114" r="3.5" fill="#c6af71" stroke="none" stroke-width="1"/><circle cx="128" cy="114" r="1.8" fill="#182c2b" stroke="none" stroke-width="1"/><path d="M55 25h69v7h-62v8h62v8h-50" stroke="#c6af71" stroke-width="3" fill="none" stroke-linecap="round" stroke-linejoin="round"/><rect x="68" y="63" width="5" height="2" rx="0" fill="#bac4c5" stroke="none"/><rect x="104" y="63" width="5" height="2" rx="0" fill="#bac4c5" stroke="none"/><rect x="76" y="55" width="2" height="5" rx="0" fill="#bac4c5" stroke="none"/><rect x="76" y="91" width="2" height="5" rx="0" fill="#bac4c5" stroke="none"/><rect x="68" y="67" width="5" height="2" rx="0" fill="#bac4c5" stroke="none"/><rect x="104" y="67" width="5" height="2" rx="0" fill="#bac4c5" stroke="none"/><rect x="80" y="55" width="2" height="5" rx="0" fill="#bac4c5" stroke="none"/><rect x="80" y="91" width="2" height="5" rx="0" fill="#bac4c5" stroke="none"/><rect x="68" y="71" width="5" height="2" rx="0" fill="#bac4c5" stroke="none"/><rect x="104" y="71" width="5" height="2" rx="0" fill="#bac4c5" stroke="none"/><rect x="84" y="55" width="2" height="5" rx="0" fill="#bac4c5" stroke="none"/><rect x="84" y="91" width="2" height="5" rx="0" fill="#bac4c5" stroke="none"/><rect x="68" y="75" width="5" height="2" rx="0" fill="#bac4c5" stroke="none"/><rect x="104" y="75" width="5" height="2" rx="0" fill="#bac4c5" stroke="none"/><rect x="88" y="55" width="2" height="5" rx="0" fill="#bac4c5" stroke="none"/><rect x="88" y="91" width="2" height="5" rx="0" fill="#bac4c5" stroke="none"/><rect x="68" y="79" width="5" height="2" rx="0" fill="#bac4c5" stroke="none"/><rect x="104" y="79" width="5" height="2" rx="0" fill="#bac4c5" stroke="none"/><rect x="92" y="55" width="2" height="5" rx="0" fill="#bac4c5" stroke="none"/><rect x="92" y="91" width="2" height="5" rx="0" fill="#bac4c5" stroke="none"/><rect x="68" y="83" width="5" height="2" rx="0" fill="#bac4c5" stroke="none"/><rect x="104" y="83" width="5" height="2" rx="0" fill="#bac4c5" stroke="none"/><rect x="96" y="55" width="2" height="5" rx="0" fill="#bac4c5" stroke="none"/><rect x="96" y="91" width="2" height="5" rx="0" fill="#bac4c5" stroke="none"/><rect x="68" y="87" width="5" height="2" rx="0" fill="#bac4c5" stroke="none"/><rect x="104" y="87" width="5" height="2" rx="0" fill="#bac4c5" stroke="none"/><rect x="100" y="55" width="2" height="5" rx="0" fill="#bac4c5" stroke="none"/><rect x="100" y="91" width="2" height="5" rx="0" fill="#bac4c5" stroke="none"/><rect x="73" y="60" width="31" height="31" rx="2" fill="#20282d" stroke="#48585c"/><text x="88.5" y="77.5" font-family="Arial,sans-serif" font-size="5" fill="#b0baba" text-anchor="middle">ESP8266</text><circle cx="77" cy="64" r="1.5" fill="#819194" stroke="none" stroke-width="1"/><rect x="51" y="103" width="80" height="10" rx="1" fill="#182127" stroke="none"/><rect x="53" y="106" width="4" height="4" rx="0.6" fill="#c6af71" stroke="none"/><circle cx="55" cy="108" r="0.9" fill="#2c3334" stroke="none" stroke-width="1"/><rect x="73" y="106" width="4" height="4" rx="0.6" fill="#c6af71" stroke="none"/><circle cx="75" cy="108" r="0.9" fill="#2c3334" stroke="none" stroke-width="1"/><rect x="93" y="106" width="4" height="4" rx="0.6" fill="#c6af71" stroke="none"/><circle cx="95" cy="108" r="0.9" fill="#2c3334" stroke="none" stroke-width="1"/><rect x="113" y="106" width="4" height="4" rx="0.6" fill="#c6af71" stroke="none"/><circle cx="115" cy="108" r="0.9" fill="#2c3334" stroke="none" stroke-width="1"/><rect x="51" y="111" width="80" height="10" rx="1" fill="#182127" stroke="none"/><rect x="53" y="114" width="4" height="4" rx="0.6" fill="#c6af71" stroke="none"/><circle cx="55" cy="116" r="0.9" fill="#2c3334" stroke="none" stroke-width="1"/><rect x="73" y="114" width="4" height="4" rx="0.6" fill="#c6af71" stroke="none"/><circle cx="75" cy="116" r="0.9" fill="#2c3334" stroke="none" stroke-width="1"/><rect x="93" y="114" width="4" height="4" rx="0.6" fill="#c6af71" stroke="none"/><circle cx="95" cy="116" r="0.9" fill="#2c3334" stroke="none" stroke-width="1"/><rect x="113" y="114" width="4" height="4" rx="0.6" fill="#c6af71" stroke="none"/><circle cx="115" cy="116" r="0.9" fill="#2c3334" stroke="none" stroke-width="1"/><rect x="52" y="85" width="12" height="5" rx="1" fill="#bdc3b5" stroke="none"/><rect x="54" y="85" width="8" height="5" rx="0" fill="#746e5b" stroke="none"/><text x="90" y="102" font-family="Arial,sans-serif" font-size="7" fill="#d1ded8" text-anchor="middle">ESP-01</text></svg>
