<svg xmlns="http://www.w3.org/2000/svg" viewBox="0 0 180 140" role="img" aria-labelledby="title" data-component="i2c-lcd" data-model="i2c-lcd"><title id="title">I2C LCD — GUBI component illustration</title><defs><linearGradient id="metal" x2="0.8" y2="1"><stop stop-color="#e1e5df"/><stop offset=".45" stop-color="#8d9da3"/><stop offset="1" stop-color="#bcc8c8"/></linearGradient><linearGradient id="plastic" x2=".7" y2="1"><stop stop-color="#48535b"/><stop offset="1" stop-color="#1e272e"/></linearGradient></defs><rect x="7" y="23" width="166" height="92" rx="5" fill="#39774e" stroke="#60978c"/><path d="M19 37H159V100H22" stroke="#ffffff12" stroke-width="1" fill="none" stroke-linecap="round" stroke-linejoin="round"/><circle cx="15" cy="31" r="3.5" fill="#c6af71" stroke="none" stroke-width="1"/><circle cx="15" cy="31" r="1.8" fill="#182c2b" stroke="none" stroke-width="1"/><circle cx="165" cy="31" r="3.5" fill="#c6af71" stroke="none" stroke-width="1"/><circle cx="165" cy="31" r="1.8" fill="#182c2b" stroke="none" stroke-width="1"/><circle cx="15" cy="107" r="3.5" fill="#c6af71" stroke="none" stroke-width="1"/><circle cx="15" cy="107" r="1.8" fill="#182c2b" stroke="none" stroke-width="1"/><circle cx="165" cy="107" r="3.5" fill="#c6af71" stroke="none" stroke-width="1"/><circle cx="165" cy="107" r="1.8" fill="#182c2b" stroke="none" stroke-width="1"/><rect x="27" y="21" width="128" height="10" rx="1" fill="#182127" stroke="none"/><rect x="29" y="24" width="4" height="4" rx="0.6" fill="#c6af71" stroke="none"/><circle cx="31" cy="26" r="0.9" fill="#2c3334" stroke="none" stroke-width="1"/><rect x="37" y="24" width="4" height="4" rx="0.6" fill="#c6af71" stroke="none"/><circle cx="39" cy="26" r="0.9" fill="#2c3334" stroke="none" stroke-width="1"/><rect x="45" y="24" width="4" height="4" rx="0.6" fill="#c6af71" stroke="none"/><circle cx="47" cy="26" r="0.9" fill="#2c3334" stroke="none" stroke-width="1"/><rect x="53" y="24" width="4" height="4" rx="0.6" fill="#c6af71" stroke="none"/><circle cx="55" cy="26" r="0.9" fill="#2c3334" stroke="none" stroke-width="1"/><rect x="61" y="24" width="4" height="4" rx="0.6" fill="#c6af71" stroke="none"/><circle cx="63" cy="26" r="0.9" fill="#2c3334" stroke="none" stroke-width="1"/><rect x="69" y="24" width="4" height="4" rx="0.6" fill="#c6af71" stroke="none"/><circle cx="71" cy="26" r="0.9" fill="#2c3334" stroke="none" stroke-width="1"/><rect x="77" y="24" width="4" height="4" rx="0.6" fill="#c6af71" stroke="none"/><circle cx="79" cy="26" r="0.9" fill="#2c3334" stroke="none" stroke-width="1"/><rect x="85" y="24" width="4" height="4" rx="0.6" fill="#c6af71" stroke="none"/><circle cx="87" cy="26" r="0.9" fill="#2c3334" stroke="none" stroke-width="1"/><rect x="93" y="24" width="4" height="4" rx="0.6" fill="#c6af71" stroke="none"/><circle cx="95" cy="26" r="0.9" fill="#2c3334" stroke="none" stroke-width="1"/><rect x="101" y="24" width="4" height="4" rx="0.6" fill="#c6af71" stroke="none"/><circle cx="103" cy="26" r="0.9" fill="#2c3334" stroke="none" stroke-width="1"/><rect x="109" y="24" width="4" height="4" rx="0.6" fill="#c6af71" stroke="none"/><circle cx="111" cy="26" r="0.9" fill="#2c3334" stroke="none" stroke-width="1"/><rect x="117" y="24" width="4" height="4" rx="0.6" fill="#c6af71" stroke="none"/><circle cx="119" cy="26" r="0.9" fill="#2c3334" stroke="none" stroke-width="1"/><rect x="125" y="24" width="4" height="4" rx="0.6" fill="#c6af71" stroke="none"/><circle cx="127" cy="26" r="0.9" fill="#2c3334" stroke="none" stroke-width="1"/><rect x="133" y="24" width="4" height="4" rx="0.6" fill="#c6af71" stroke="none"/><circle cx="135" cy="26" r="0.9" fill="#2c3334" stroke="none" stroke-width="1"/><rect x="141" y="24" width="4" height="4" rx="0.6" fill="#c6af71" stroke="none"/><circle cx="143" cy="26" r="0.9" fill="#2c3334" stroke="none" stroke-width="1"/><rect x="149" y="24" width="4" height="4" rx="0.6" fill="#c6af71" stroke="none"/><circle cx="151" cy="26" r="0.9" fill="#2c3334" stroke="none" stroke-width="1"/><rect x="16" y="42" width="148" height="60" rx="3" fill="#1f292c" stroke="#738478"/><rect x="23" y="48" width="134" height="48" rx="2" fill="#96af6e" stroke="none"/><rect x="27" y="52" width="6" height="14" rx="0.5" fill="#8ca263" stroke="none"/><rect x="34.875" y="52" width="6" height="14" rx="0.5" fill="#8ca263" stroke="none"/><rect x="42.75" y="52" width="6" height="14" rx="0.5" fill="#8ca263" stroke="none"/><rect x="50.625" y="52" width="6" height="14" rx="0.5" fill="#8ca263" stroke="none"/><rect x="58.5" y="52" width="6" height="14" rx="0.5" fill="#8ca263" stroke="none"/><rect x="66.375" y="52" width="6" height="14" rx="0.5" fill="#8ca263" stroke="none"/><rect x="74.25" y="52" width="6" height="14" rx="0.5" fill="#8ca263" stroke="none"/><rect x="82.125" y="52" width="6" height="14" rx="0.5" fill="#8ca263" stroke="none"/><rect x="90" y="52" width="6" height="14" rx="0.5" fill="#8ca263" stroke="none"/><rect x="97.875" y="52" width="6" height="14" rx="0.5" fill="#8ca263" stroke="none"/><rect x="105.75" y="52" width="6" height="14" rx="0.5" fill="#8ca263" stroke="none"/><rect x="113.625" y="52" width="6" height="14" rx="0.5" fill="#8ca263" stroke="none"/><rect x="121.5" y="52" width="6" height="14" rx="0.5" fill="#8ca263" stroke="none"/><rect x="129.375" y="52" width="6" height="14" rx="0.5" fill="#8ca263" stroke="none"/><rect x="137.25" y="52" width="6" height="14" rx="0.5" fill="#8ca263" stroke="none"/><rect x="145.125" y="52" width="6" height="14" rx="0.5" fill="#8ca263" stroke="none"/><rect x="27" y="72" width="6" height="14" rx="0.5" fill="#8ca263" stroke="none"/><rect x="34.875" y="72" width="6" height="14" rx="0.5" fill="#8ca263" stroke="none"/><rect x="42.75" y="72" width="6" height="14" rx="0.5" fill="#8ca263" stroke="none"/><rect x="50.625" y="72" width="6" height="14" rx="0.5" fill="#8ca263" stroke="none"/><rect x="58.5" y="72" width="6" height="14" rx="0.5" fill="#8ca263" stroke="none"/><rect x="66.375" y="72" width="6" height="14" rx="0.5" fill="#8ca263" stroke="none"/><rect x="74.25" y="72" width="6" height="14" rx="0.5" fill="#8ca263" stroke="none"/><rect x="82.125" y="72" width="6" height="14" rx="0.5" fill="#8ca263" stroke="none"/><rect x="90" y="72" width="6" height="14" rx="0.5" fill="#8ca263" stroke="none"/><rect x="97.875" y="72" width="6" height="14" rx="0.5" fill="#8ca263" stroke="none"/><rect x="105.75" y="72" width="6" height="14" rx="0.5" fill="#8ca263" stroke="none"/><rect x="113.625" y="72" width="6" height="14" rx="0.5" fill="#8ca263" stroke="none"/><rect x="121.5" y="72" width="6" height="14" rx="0.5" fill="#8ca263" stroke="none"/><rect x="129.375" y="72" width="6" height="14" rx="0.5" fill="#8ca263" stroke="none"/><rect x="137.25" y="72" width="6" height="14" rx="0.5" fill="#8ca263" stroke="none"/><rect x="145.125" y="72" width="6" height="14" rx="0.5" fill="#8ca263" stroke="none"/><text x="90" y="129" font-family="Arial,sans-serif" font-size="7" fill="#a8b9ae" text-anchor="middle">LCD 16×2 · I²C</text><rect x="48" y="104" width="84" height="18" rx="5" fill="#245b5a" stroke="#60978c"/><path d="M60 118H118V107H63" stroke="#ffffff12" stroke-width="1" fill="none" stroke-linecap="round" stroke-linejoin="round"/><circle cx="56" cy="112" r="3.5" fill="#c6af71" stroke="none" stroke-width="1"/><circle cx="56" cy="112" r="1.8" fill="#182c2b" stroke="none" stroke-width="1"/><circle cx="124" cy="112" r="3.5" fill="#c6af71" stroke="none" stroke-width="1"/><circle cx="124" cy="112" r="1.8" fill="#182c2b" stroke="none" stroke-width="1"/><circle cx="56" cy="114" r="3.5" fill="#c6af71" stroke="none" stroke-width="1"/><circle cx="56" cy="114" r="1.8" fill="#182c2b" stroke="none" stroke-width="1"/><circle cx="124" cy="114" r="3.5" fill="#c6af71" stroke="none" stroke-width="1"/><circle cx="124" cy="114" r="1.8" fill="#182c2b" stroke="none" stroke-width="1"/><rect x="65" y="110" width="6" height="3" rx="0" fill="#bac4c5" stroke="none"/><rect x="104" y="110" width="6" height="3" rx="0" fill="#bac4c5" stroke="none"/><rect x="65" y="111" width="6" height="3" rx="0" fill="#bac4c5" stroke="none"/><rect x="104" y="111" width="6" height="3" rx="0" fill="#bac4c5" stroke="none"/><rect x="65" y="112" width="6" height="3" rx="0" fill="#bac4c5" stroke="none"/><rect x="104" y="112" width="6" height="3" rx="0" fill="#bac4c5" stroke="none"/><rect x="65" y="113" width="6" height="3" rx="0" fill="#bac4c5" stroke="none"/><rect x="104" y="113" width="6" height="3" rx="0" fill="#bac4c5" stroke="none"/><rect x="70" y="105" width="35" height="13" rx="2" fill="#20282d" stroke="#475258"/><circle cx="75" cy="110" r="1.5" fill="#738080" stroke="none" stroke-width="1"/><text x="87.5" y="113.5" font-family="Arial,sans-serif" font-size="5.833333333333333" fill="#a8b6b4" text-anchor="middle">PCF8574</text><rect x="52" y="106" width="12" height="12" rx="1" fill="#4a87aa" stroke="none"/><circle cx="58" cy="112" r="4" fill="#bac4c5" stroke="none" stroke-width="1"/></svg>
