<svg xmlns="http://www.w3.org/2000/svg" viewBox="0 0 180 140" role="img" aria-labelledby="title" data-component="keypad-3x4" data-model="keypad"><title id="title">Keypad 3x4 — GUBI component illustration</title><defs><linearGradient id="metal" x2="0.8" y2="1"><stop stop-color="#e1e5df"/><stop offset=".45" stop-color="#8d9da3"/><stop offset="1" stop-color="#bcc8c8"/></linearGradient><linearGradient id="plastic" x2=".7" y2="1"><stop stop-color="#48535b"/><stop offset="1" stop-color="#1e272e"/></linearGradient></defs><rect x="20" y="14" width="140" height="109" rx="6" fill="#306b61" stroke="#89a4a2"/><rect x="26" y="20" width="36.666666666666664" height="19.25" rx="4" fill="#607e89" stroke="#a5b7ab"/><text x="44.83333333333333" y="33.3375" font-family="Arial,sans-serif" font-size="9" fill="#d7dfce" text-anchor="middle">1</text><rect x="67.66666666666666" y="20" width="36.666666666666664" height="19.25" rx="4" fill="#607e89" stroke="#a5b7ab"/><text x="86.5" y="33.3375" font-family="Arial,sans-serif" font-size="9" fill="#d7dfce" text-anchor="middle">2</text><rect x="109.33333333333333" y="20" width="36.666666666666664" height="19.25" rx="4" fill="#607e89" stroke="#a5b7ab"/><text x="128.16666666666666" y="33.3375" font-family="Arial,sans-serif" font-size="9" fill="#d7dfce" text-anchor="middle">3</text><rect x="26" y="44.25" width="36.666666666666664" height="19.25" rx="4" fill="#607e89" stroke="#a5b7ab"/><text x="44.83333333333333" y="57.5875" font-family="Arial,sans-serif" font-size="9" fill="#d7dfce" text-anchor="middle">4</text><rect x="67.66666666666666" y="44.25" width="36.666666666666664" height="19.25" rx="4" fill="#607e89" stroke="#a5b7ab"/><text x="86.5" y="57.5875" font-family="Arial,sans-serif" font-size="9" fill="#d7dfce" text-anchor="middle">5</text><rect x="109.33333333333333" y="44.25" width="36.666666666666664" height="19.25" rx="4" fill="#607e89" stroke="#a5b7ab"/><text x="128.16666666666666" y="57.5875" font-family="Arial,sans-serif" font-size="9" fill="#d7dfce" text-anchor="middle">6</text><rect x="26" y="68.5" width="36.666666666666664" height="19.25" rx="4" fill="#607e89" stroke="#a5b7ab"/><text x="44.83333333333333" y="81.8375" font-family="Arial,sans-serif" font-size="9" fill="#d7dfce" text-anchor="middle">7</text><rect x="67.66666666666666" y="68.5" width="36.666666666666664" height="19.25" rx="4" fill="#607e89" stroke="#a5b7ab"/><text x="86.5" y="81.8375" font-family="Arial,sans-serif" font-size="9" fill="#d7dfce" text-anchor="middle">8</text><rect x="109.33333333333333" y="68.5" width="36.666666666666664" height="19.25" rx="4" fill="#607e89" stroke="#a5b7ab"/><text x="128.16666666666666" y="81.8375" font-family="Arial,sans-serif" font-size="9" fill="#d7dfce" text-anchor="middle">9</text><rect x="26" y="92.75" width="36.666666666666664" height="19.25" rx="4" fill="#607e89" stroke="#a5b7ab"/><text x="44.83333333333333" y="106.08749999999999" font-family="Arial,sans-serif" font-size="9" fill="#d7dfce" text-anchor="middle">10</text><rect x="67.66666666666666" y="92.75" width="36.666666666666664" height="19.25" rx="4" fill="#607e89" stroke="#a5b7ab"/><text x="86.5" y="106.08749999999999" font-family="Arial,sans-serif" font-size="9" fill="#d7dfce" text-anchor="middle">11</text><rect x="109.33333333333333" y="92.75" width="36.666666666666664" height="19.25" rx="4" fill="#607e89" stroke="#a5b7ab"/><text x="128.16666666666666" y="106.08749999999999" font-family="Arial,sans-serif" font-size="9" fill="#d7dfce" text-anchor="middle">12</text><text x="90" y="138" font-family="Arial,sans-serif" font-size="8" fill="#afc3c8" text-anchor="middle">Keypad 3x4</text></svg>
