<svg xmlns="http://www.w3.org/2000/svg" viewBox="0 0 180 140" role="img" aria-labelledby="title" data-component="line-sensor" data-model="line-sensor"><title id="title">Line sensor — GUBI component illustration</title><defs><linearGradient id="metal" x2="0.8" y2="1"><stop stop-color="#e1e5df"/><stop offset=".45" stop-color="#8d9da3"/><stop offset="1" stop-color="#bcc8c8"/></linearGradient><linearGradient id="plastic" x2=".7" y2="1"><stop stop-color="#48535b"/><stop offset="1" stop-color="#1e272e"/></linearGradient></defs><rect x="33" y="22" width="114" height="95" rx="5" fill="#36695b" stroke="#60978c"/><path d="M45 36H133V102H48" stroke="#ffffff12" stroke-width="1" fill="none" stroke-linecap="round" stroke-linejoin="round"/><circle cx="41" cy="30" r="3.5" fill="#c6af71" stroke="none" stroke-width="1"/><circle cx="41" cy="30" r="1.8" fill="#182c2b" stroke="none" stroke-width="1"/><circle cx="139" cy="30" r="3.5" fill="#c6af71" stroke="none" stroke-width="1"/><circle cx="139" cy="30" r="1.8" fill="#182c2b" stroke="none" stroke-width="1"/><circle cx="41" cy="109" r="3.5" fill="#c6af71" stroke="none" stroke-width="1"/><circle cx="41" cy="109" r="1.8" fill="#182c2b" stroke="none" stroke-width="1"/><circle cx="139" cy="109" r="3.5" fill="#c6af71" stroke="none" stroke-width="1"/><circle cx="139" cy="109" r="1.8" fill="#182c2b" stroke="none" stroke-width="1"/><rect x="58" y="110" width="75" height="10" rx="1" fill="#182127" stroke="none"/><rect x="60" y="113" width="4" height="4" rx="0.6" fill="#c6af71" stroke="none"/><circle cx="62" cy="115" r="0.9" fill="#2c3334" stroke="none" stroke-width="1"/><rect x="85" y="113" width="4" height="4" rx="0.6" fill="#c6af71" stroke="none"/><circle cx="87" cy="115" r="0.9" fill="#2c3334" stroke="none" stroke-width="1"/><rect x="110" y="113" width="4" height="4" rx="0.6" fill="#c6af71" stroke="none"/><circle cx="112" cy="115" r="0.9" fill="#2c3334" stroke="none" stroke-width="1"/><text x="90" y="34" font-family="Arial,sans-serif" font-size="8" fill="#d1ded8" text-anchor="middle">LINE · TCRT5000</text><rect x="47" y="47" width="76" height="35" rx="6" fill="#232f3a" stroke="#648996"/><circle cx="68" cy="64" r="12" fill="#637e89" stroke="#a7c7c8" stroke-width="1"/><circle cx="103" cy="64" r="12" fill="#202c35" stroke="#738b97" stroke-width="1"/><rect x="55" y="99" width="6" height="3" rx="0" fill="#bac4c5" stroke="none"/><rect x="111" y="99" width="6" height="3" rx="0" fill="#bac4c5" stroke="none"/><rect x="55" y="100.33333333333333" width="6" height="3" rx="0" fill="#bac4c5" stroke="none"/><rect x="111" y="100.33333333333333" width="6" height="3" rx="0" fill="#bac4c5" stroke="none"/><rect x="55" y="101.66666666666667" width="6" height="3" rx="0" fill="#bac4c5" stroke="none"/><rect x="111" y="101.66666666666667" width="6" height="3" rx="0" fill="#bac4c5" stroke="none"/><rect x="55" y="103" width="6" height="3" rx="0" fill="#bac4c5" stroke="none"/><rect x="111" y="103" width="6" height="3" rx="0" fill="#bac4c5" stroke="none"/><rect x="60" y="94" width="52" height="14" rx="2" fill="#20282d" stroke="#475258"/><circle cx="65" cy="99" r="1.5" fill="#738080" stroke="none" stroke-width="1"/><text x="86" y="103" font-family="Arial,sans-serif" font-size="7" fill="#a8b6b4" text-anchor="middle">LM393</text><rect x="116" y="87" width="21" height="21" rx="2" fill="#487da8" stroke="#9ab8c6"/><circle cx="126.5" cy="97.5" r="7" fill="url(#metal)" stroke="none" stroke-width="1"/><path d="M121 97.5h11" stroke="#455c6b" stroke-width="2" fill="none" stroke-linecap="round" stroke-linejoin="round"/></svg>
