<svg xmlns="http://www.w3.org/2000/svg" viewBox="0 0 180 140" role="img" aria-labelledby="title" data-component="max98357-i2s-amplifier" data-model="amplifier"><title id="title">MAX98357 I2S amplifier — GUBI component illustration</title><defs><linearGradient id="metal" x2="0.8" y2="1"><stop stop-color="#e1e5df"/><stop offset=".45" stop-color="#8d9da3"/><stop offset="1" stop-color="#bcc8c8"/></linearGradient><linearGradient id="plastic" x2=".7" y2="1"><stop stop-color="#48535b"/><stop offset="1" stop-color="#1e272e"/></linearGradient></defs><rect x="22" y="22" width="136" height="100" rx="5" fill="#3e716f" stroke="#60978c"/><path d="M34 36H144V107H37" stroke="#ffffff12" stroke-width="1" fill="none" stroke-linecap="round" stroke-linejoin="round"/><circle cx="30" cy="30" r="3.5" fill="#c6af71" stroke="none" stroke-width="1"/><circle cx="30" cy="30" r="1.8" fill="#182c2b" stroke="none" stroke-width="1"/><circle cx="150" cy="30" r="3.5" fill="#c6af71" stroke="none" stroke-width="1"/><circle cx="150" cy="30" r="1.8" fill="#182c2b" stroke="none" stroke-width="1"/><circle cx="30" cy="114" r="3.5" fill="#c6af71" stroke="none" stroke-width="1"/><circle cx="30" cy="114" r="1.8" fill="#182c2b" stroke="none" stroke-width="1"/><circle cx="150" cy="114" r="3.5" fill="#c6af71" stroke="none" stroke-width="1"/><circle cx="150" cy="114" r="1.8" fill="#182c2b" stroke="none" stroke-width="1"/><rect x="36" y="82" width="12" height="5" rx="1" fill="#bdc3b5" stroke="none"/><rect x="38" y="82" width="8" height="5" rx="0" fill="#746e5b" stroke="none"/><rect x="54" y="91" width="12" height="5" rx="1" fill="#bdc3b5" stroke="none"/><rect x="56" y="91" width="8" height="5" rx="0" fill="#746e5b" stroke="none"/><rect x="125" y="40" width="12" height="5" rx="1" fill="#bdc3b5" stroke="none"/><rect x="127" y="40" width="8" height="5" rx="0" fill="#746e5b" stroke="none"/><rect x="130" y="83" width="12" height="5" rx="1" fill="#bdc3b5" stroke="none"/><rect x="132" y="83" width="8" height="5" rx="0" fill="#746e5b" stroke="none"/><circle cx="43" cy="43" r="4" fill="#ad7e56" stroke="none" stroke-width="1"/><circle cx="43" cy="43" r="1.8" fill="#3e4948" stroke="none" stroke-width="1"/><rect x="52" y="47" width="6" height="3" rx="0" fill="#bac4c5" stroke="none"/><rect x="116" y="47" width="6" height="3" rx="0" fill="#bac4c5" stroke="none"/><rect x="52" y="52" width="6" height="3" rx="0" fill="#bac4c5" stroke="none"/><rect x="116" y="52" width="6" height="3" rx="0" fill="#bac4c5" stroke="none"/><rect x="52" y="57" width="6" height="3" rx="0" fill="#bac4c5" stroke="none"/><rect x="116" y="57" width="6" height="3" rx="0" fill="#bac4c5" stroke="none"/><rect x="52" y="62" width="6" height="3" rx="0" fill="#bac4c5" stroke="none"/><rect x="116" y="62" width="6" height="3" rx="0" fill="#bac4c5" stroke="none"/><rect x="52" y="67" width="6" height="3" rx="0" fill="#bac4c5" stroke="none"/><rect x="116" y="67" width="6" height="3" rx="0" fill="#bac4c5" stroke="none"/><rect x="52" y="72" width="6" height="3" rx="0" fill="#bac4c5" stroke="none"/><rect x="116" y="72" width="6" height="3" rx="0" fill="#bac4c5" stroke="none"/><rect x="52" y="77" width="6" height="3" rx="0" fill="#bac4c5" stroke="none"/><rect x="116" y="77" width="6" height="3" rx="0" fill="#bac4c5" stroke="none"/><rect x="52" y="82" width="6" height="3" rx="0" fill="#bac4c5" stroke="none"/><rect x="116" y="82" width="6" height="3" rx="0" fill="#bac4c5" stroke="none"/><rect x="57" y="42" width="60" height="45" rx="2" fill="#20282d" stroke="#475258"/><circle cx="62" cy="47" r="1.5" fill="#738080" stroke="none" stroke-width="1"/><text x="87" y="66.5" font-family="Arial,sans-serif" font-size="7" fill="#a8b6b4" text-anchor="middle">MAX98357</text><rect x="30" y="95" width="18" height="19" rx="2" fill="#679090" stroke="#8aadbe"/><circle cx="39.5" cy="101" r="4" fill="#bac4c5" stroke="none" stroke-width="1"/><path d="M37.5 103l4-4" stroke="#52616a" stroke-width="1.2" fill="none" stroke-linecap="round" stroke-linejoin="round"/><rect x="33" y="108" width="12" height="5" rx="1" fill="#172f37" stroke="none"/><rect x="49" y="95" width="18" height="19" rx="2" fill="#679090" stroke="#8aadbe"/><circle cx="58.5" cy="101" r="4" fill="#bac4c5" stroke="none" stroke-width="1"/><path d="M56.5 103l4-4" stroke="#52616a" stroke-width="1.2" fill="none" stroke-linecap="round" stroke-linejoin="round"/><rect x="52" y="108" width="12" height="5" rx="1" fill="#172f37" stroke="none"/><rect x="116" y="95" width="18" height="19" rx="2" fill="#679090" stroke="#8aadbe"/><circle cx="125.5" cy="101" r="4" fill="#bac4c5" stroke="none" stroke-width="1"/><path d="M123.5 103l4-4" stroke="#52616a" stroke-width="1.2" fill="none" stroke-linecap="round" stroke-linejoin="round"/><rect x="119" y="108" width="12" height="5" rx="1" fill="#172f37" stroke="none"/><rect x="135" y="95" width="18" height="19" rx="2" fill="#679090" stroke="#8aadbe"/><circle cx="144.5" cy="101" r="4" fill="#bac4c5" stroke="none" stroke-width="1"/><path d="M142.5 103l4-4" stroke="#52616a" stroke-width="1.2" fill="none" stroke-linecap="round" stroke-linejoin="round"/><rect x="138" y="108" width="12" height="5" rx="1" fill="#172f37" stroke="none"/><circle cx="39" cy="52" r="13" fill="url(#metal)" stroke="#c1cccc" stroke-width="1.4"/><circle cx="39" cy="52" r="9" fill="#52616a" stroke="none" stroke-width="1"/><path d="M31 52H47 M39 44V60" stroke="#afbdbd" stroke-width="1" fill="none" stroke-linecap="round" stroke-linejoin="round"/><circle cx="139" cy="52" r="13" fill="url(#metal)" stroke="#c1cccc" stroke-width="1.4"/><circle cx="139" cy="52" r="9" fill="#52616a" stroke="none" stroke-width="1"/><path d="M131 52H147 M139 44V60" stroke="#afbdbd" stroke-width="1" fill="none" stroke-linecap="round" stroke-linejoin="round"/><rect x="56" y="112" width="72" height="10" rx="1" fill="#182127" stroke="none"/><rect x="58" y="115" width="4" height="4" rx="0.6" fill="#c6af71" stroke="none"/><circle cx="60" cy="117" r="0.9" fill="#2c3334" stroke="none" stroke-width="1"/><rect x="70" y="115" width="4" height="4" rx="0.6" fill="#c6af71" stroke="none"/><circle cx="72" cy="117" r="0.9" fill="#2c3334" stroke="none" stroke-width="1"/><rect x="82" y="115" width="4" height="4" rx="0.6" fill="#c6af71" stroke="none"/><circle cx="84" cy="117" r="0.9" fill="#2c3334" stroke="none" stroke-width="1"/><rect x="94" y="115" width="4" height="4" rx="0.6" fill="#c6af71" stroke="none"/><circle cx="96" cy="117" r="0.9" fill="#2c3334" stroke="none" stroke-width="1"/><rect x="106" y="115" width="4" height="4" rx="0.6" fill="#c6af71" stroke="none"/><circle cx="108" cy="117" r="0.9" fill="#2c3334" stroke="none" stroke-width="1"/><rect x="118" y="115" width="4" height="4" rx="0.6" fill="#c6af71" stroke="none"/><circle cx="120" cy="117" r="0.9" fill="#2c3334" stroke="none" stroke-width="1"/><text x="60" y="109" font-family="Arial,sans-serif" font-size="5" fill="#b5ccc2" text-anchor="middle">VCC</text><text x="72" y="109" font-family="Arial,sans-serif" font-size="5" fill="#b5ccc2" text-anchor="middle">GND</text><text x="84" y="109" font-family="Arial,sans-serif" font-size="5" fill="#b5ccc2" text-anchor="middle">IN_L</text><text x="96" y="109" font-family="Arial,sans-serif" font-size="5" fill="#b5ccc2" text-anchor="middle">IN_R</text><text x="108" y="109" font-family="Arial,sans-serif" font-size="5" fill="#b5ccc2" text-anchor="middle">OUT_L</text><text x="120" y="109" font-family="Arial,sans-serif" font-size="5" fill="#b5ccc2" text-anchor="middle">OUT_R</text><text x="90" y="133" font-family="Arial,sans-serif" font-size="8" fill="#afc3c8" text-anchor="middle">MAX98357 I2S amplifier</text></svg>
