<svg xmlns="http://www.w3.org/2000/svg" viewBox="0 0 180 140" role="img" aria-labelledby="title" data-component="relay-4-channel" data-model="relay"><title id="title">Relay 4 channel — GUBI component illustration</title><defs><linearGradient id="metal" x2="0.8" y2="1"><stop stop-color="#e1e5df"/><stop offset=".45" stop-color="#8d9da3"/><stop offset="1" stop-color="#bcc8c8"/></linearGradient><linearGradient id="plastic" x2=".7" y2="1"><stop stop-color="#48535b"/><stop offset="1" stop-color="#1e272e"/></linearGradient></defs><rect x="7" y="18" width="166" height="109" rx="5" fill="#375f86" stroke="#60978c"/><path d="M19 32H159V112H22" stroke="#ffffff12" stroke-width="1" fill="none" stroke-linecap="round" stroke-linejoin="round"/><circle cx="15" cy="26" r="3.5" fill="#c6af71" stroke="none" stroke-width="1"/><circle cx="15" cy="26" r="1.8" fill="#182c2b" stroke="none" stroke-width="1"/><circle cx="165" cy="26" r="3.5" fill="#c6af71" stroke="none" stroke-width="1"/><circle cx="165" cy="26" r="1.8" fill="#182c2b" stroke="none" stroke-width="1"/><circle cx="15" cy="119" r="3.5" fill="#c6af71" stroke="none" stroke-width="1"/><circle cx="15" cy="119" r="1.8" fill="#182c2b" stroke="none" stroke-width="1"/><circle cx="165" cy="119" r="3.5" fill="#c6af71" stroke="none" stroke-width="1"/><circle cx="165" cy="119" r="1.8" fill="#182c2b" stroke="none" stroke-width="1"/><rect x="18" y="38" width="30.5" height="55" rx="2" fill="#487697" stroke="#a6c5c6"/><text x="33.25" y="66" font-family="Arial,sans-serif" font-size="8" fill="#d5e4d8" text-anchor="middle">RELAY</text><rect x="52.5" y="38" width="30.5" height="55" rx="2" fill="#487697" stroke="#a6c5c6"/><text x="67.75" y="66" font-family="Arial,sans-serif" font-size="8" fill="#d5e4d8" text-anchor="middle">RELAY</text><rect x="87" y="38" width="30.5" height="55" rx="2" fill="#487697" stroke="#a6c5c6"/><text x="102.25" y="66" font-family="Arial,sans-serif" font-size="8" fill="#d5e4d8" text-anchor="middle">RELAY</text><rect x="121.5" y="38" width="30.5" height="55" rx="2" fill="#487697" stroke="#a6c5c6"/><text x="136.75" y="66" font-family="Arial,sans-serif" font-size="8" fill="#d5e4d8" text-anchor="middle">RELAY</text><rect x="18" y="100" width="10.5" height="19" rx="2" fill="#487a80" stroke="#8aadbe"/><circle cx="23.75" cy="106" r="4" fill="#bac4c5" stroke="none" stroke-width="1"/><path d="M21.75 108l4-4" stroke="#52616a" stroke-width="1.2" fill="none" stroke-linecap="round" stroke-linejoin="round"/><rect x="21" y="113" width="4.5" height="5" rx="1" fill="#172f37" stroke="none"/><rect x="29.5" y="100" width="10.5" height="19" rx="2" fill="#487a80" stroke="#8aadbe"/><circle cx="35.25" cy="106" r="4" fill="#bac4c5" stroke="none" stroke-width="1"/><path d="M33.25 108l4-4" stroke="#52616a" stroke-width="1.2" fill="none" stroke-linecap="round" stroke-linejoin="round"/><rect x="32.5" y="113" width="4.5" height="5" rx="1" fill="#172f37" stroke="none"/><rect x="41" y="100" width="10.5" height="19" rx="2" fill="#487a80" stroke="#8aadbe"/><circle cx="46.75" cy="106" r="4" fill="#bac4c5" stroke="none" stroke-width="1"/><path d="M44.75 108l4-4" stroke="#52616a" stroke-width="1.2" fill="none" stroke-linecap="round" stroke-linejoin="round"/><rect x="44" y="113" width="4.5" height="5" rx="1" fill="#172f37" stroke="none"/><rect x="52.5" y="100" width="10.5" height="19" rx="2" fill="#487a80" stroke="#8aadbe"/><circle cx="58.25" cy="106" r="4" fill="#bac4c5" stroke="none" stroke-width="1"/><path d="M56.25 108l4-4" stroke="#52616a" stroke-width="1.2" fill="none" stroke-linecap="round" stroke-linejoin="round"/><rect x="55.5" y="113" width="4.5" height="5" rx="1" fill="#172f37" stroke="none"/><rect x="64" y="100" width="10.5" height="19" rx="2" fill="#487a80" stroke="#8aadbe"/><circle cx="69.75" cy="106" r="4" fill="#bac4c5" stroke="none" stroke-width="1"/><path d="M67.75 108l4-4" stroke="#52616a" stroke-width="1.2" fill="none" stroke-linecap="round" stroke-linejoin="round"/><rect x="67" y="113" width="4.5" height="5" rx="1" fill="#172f37" stroke="none"/><rect x="75.5" y="100" width="10.5" height="19" rx="2" fill="#487a80" stroke="#8aadbe"/><circle cx="81.25" cy="106" r="4" fill="#bac4c5" stroke="none" stroke-width="1"/><path d="M79.25 108l4-4" stroke="#52616a" stroke-width="1.2" fill="none" stroke-linecap="round" stroke-linejoin="round"/><rect x="78.5" y="113" width="4.5" height="5" rx="1" fill="#172f37" stroke="none"/><rect x="87" y="100" width="10.5" height="19" rx="2" fill="#487a80" stroke="#8aadbe"/><circle cx="92.75" cy="106" r="4" fill="#bac4c5" stroke="none" stroke-width="1"/><path d="M90.75 108l4-4" stroke="#52616a" stroke-width="1.2" fill="none" stroke-linecap="round" stroke-linejoin="round"/><rect x="90" y="113" width="4.5" height="5" rx="1" fill="#172f37" stroke="none"/><rect x="98.5" y="100" width="10.5" height="19" rx="2" fill="#487a80" stroke="#8aadbe"/><circle cx="104.25" cy="106" r="4" fill="#bac4c5" stroke="none" stroke-width="1"/><path d="M102.25 108l4-4" stroke="#52616a" stroke-width="1.2" fill="none" stroke-linecap="round" stroke-linejoin="round"/><rect x="101.5" y="113" width="4.5" height="5" rx="1" fill="#172f37" stroke="none"/><rect x="110" y="100" width="10.5" height="19" rx="2" fill="#487a80" stroke="#8aadbe"/><circle cx="115.75" cy="106" r="4" fill="#bac4c5" stroke="none" stroke-width="1"/><path d="M113.75 108l4-4" stroke="#52616a" stroke-width="1.2" fill="none" stroke-linecap="round" stroke-linejoin="round"/><rect x="113" y="113" width="4.5" height="5" rx="1" fill="#172f37" stroke="none"/><rect x="121.5" y="100" width="10.5" height="19" rx="2" fill="#487a80" stroke="#8aadbe"/><circle cx="127.25" cy="106" r="4" fill="#bac4c5" stroke="none" stroke-width="1"/><path d="M125.25 108l4-4" stroke="#52616a" stroke-width="1.2" fill="none" stroke-linecap="round" stroke-linejoin="round"/><rect x="124.5" y="113" width="4.5" height="5" rx="1" fill="#172f37" stroke="none"/><rect x="133" y="100" width="10.5" height="19" rx="2" fill="#487a80" stroke="#8aadbe"/><circle cx="138.75" cy="106" r="4" fill="#bac4c5" stroke="none" stroke-width="1"/><path d="M136.75 108l4-4" stroke="#52616a" stroke-width="1.2" fill="none" stroke-linecap="round" stroke-linejoin="round"/><rect x="136" y="113" width="4.5" height="5" rx="1" fill="#172f37" stroke="none"/><rect x="144.5" y="100" width="10.5" height="19" rx="2" fill="#487a80" stroke="#8aadbe"/><circle cx="150.25" cy="106" r="4" fill="#bac4c5" stroke="none" stroke-width="1"/><path d="M148.25 108l4-4" stroke="#52616a" stroke-width="1.2" fill="none" stroke-linecap="round" stroke-linejoin="round"/><rect x="147.5" y="113" width="4.5" height="5" rx="1" fill="#172f37" stroke="none"/><rect x="20.375" y="20" width="140" height="10" rx="1" fill="#182127" stroke="none"/><rect x="22.375" y="23" width="4" height="4" rx="0.6" fill="#c6af71" stroke="none"/><circle cx="24.375" cy="25" r="0.9" fill="#2c3334" stroke="none" stroke-width="1"/><rect x="31.125" y="23" width="4" height="4" rx="0.6" fill="#c6af71" stroke="none"/><circle cx="33.125" cy="25" r="0.9" fill="#2c3334" stroke="none" stroke-width="1"/><rect x="39.875" y="23" width="4" height="4" rx="0.6" fill="#c6af71" stroke="none"/><circle cx="41.875" cy="25" r="0.9" fill="#2c3334" stroke="none" stroke-width="1"/><rect x="48.625" y="23" width="4" height="4" rx="0.6" fill="#c6af71" stroke="none"/><circle cx="50.625" cy="25" r="0.9" fill="#2c3334" stroke="none" stroke-width="1"/><rect x="57.375" y="23" width="4" height="4" rx="0.6" fill="#c6af71" stroke="none"/><circle cx="59.375" cy="25" r="0.9" fill="#2c3334" stroke="none" stroke-width="1"/><rect x="66.125" y="23" width="4" height="4" rx="0.6" fill="#c6af71" stroke="none"/><circle cx="68.125" cy="25" r="0.9" fill="#2c3334" stroke="none" stroke-width="1"/><rect x="74.875" y="23" width="4" height="4" rx="0.6" fill="#c6af71" stroke="none"/><circle cx="76.875" cy="25" r="0.9" fill="#2c3334" stroke="none" stroke-width="1"/><rect x="83.625" y="23" width="4" height="4" rx="0.6" fill="#c6af71" stroke="none"/><circle cx="85.625" cy="25" r="0.9" fill="#2c3334" stroke="none" stroke-width="1"/><rect x="92.375" y="23" width="4" height="4" rx="0.6" fill="#c6af71" stroke="none"/><circle cx="94.375" cy="25" r="0.9" fill="#2c3334" stroke="none" stroke-width="1"/><rect x="101.125" y="23" width="4" height="4" rx="0.6" fill="#c6af71" stroke="none"/><circle cx="103.125" cy="25" r="0.9" fill="#2c3334" stroke="none" stroke-width="1"/><rect x="109.875" y="23" width="4" height="4" rx="0.6" fill="#c6af71" stroke="none"/><circle cx="111.875" cy="25" r="0.9" fill="#2c3334" stroke="none" stroke-width="1"/><rect x="118.625" y="23" width="4" height="4" rx="0.6" fill="#c6af71" stroke="none"/><circle cx="120.625" cy="25" r="0.9" fill="#2c3334" stroke="none" stroke-width="1"/><rect x="127.375" y="23" width="4" height="4" rx="0.6" fill="#c6af71" stroke="none"/><circle cx="129.375" cy="25" r="0.9" fill="#2c3334" stroke="none" stroke-width="1"/><rect x="136.125" y="23" width="4" height="4" rx="0.6" fill="#c6af71" stroke="none"/><circle cx="138.125" cy="25" r="0.9" fill="#2c3334" stroke="none" stroke-width="1"/><rect x="144.875" y="23" width="4" height="4" rx="0.6" fill="#c6af71" stroke="none"/><circle cx="146.875" cy="25" r="0.9" fill="#2c3334" stroke="none" stroke-width="1"/><rect x="153.625" y="23" width="4" height="4" rx="0.6" fill="#c6af71" stroke="none"/><circle cx="155.625" cy="25" r="0.9" fill="#2c3334" stroke="none" stroke-width="1"/><text x="24.375" y="17" font-family="Arial,sans-serif" font-size="5" fill="#b5ccc2" text-anchor="middle">VCC</text><text x="33.125" y="17" font-family="Arial,sans-serif" font-size="5" fill="#b5ccc2" text-anchor="middle">GND</text><text x="41.875" y="17" font-family="Arial,sans-serif" font-size="5" fill="#b5ccc2" text-anchor="middle">IN1</text><text x="50.625" y="17" font-family="Arial,sans-serif" font-size="5" fill="#b5ccc2" text-anchor="middle">IN2</text><text x="59.375" y="17" font-family="Arial,sans-serif" font-size="5" fill="#b5ccc2" text-anchor="middle">IN3</text><text x="68.125" y="17" font-family="Arial,sans-serif" font-size="5" fill="#b5ccc2" text-anchor="middle">IN4</text><text x="76.875" y="17" font-family="Arial,sans-serif" font-size="5" fill="#b5ccc2" text-anchor="middle">COM1</text><text x="85.625" y="17" font-family="Arial,sans-serif" font-size="5" fill="#b5ccc2" text-anchor="middle">NO1</text><text x="94.375" y="17" font-family="Arial,sans-serif" font-size="5" fill="#b5ccc2" text-anchor="middle">NC1</text><text x="103.125" y="17" font-family="Arial,sans-serif" font-size="5" fill="#b5ccc2" text-anchor="middle">COM2</text><text x="111.875" y="17" font-family="Arial,sans-serif" font-size="5" fill="#b5ccc2" text-anchor="middle">NO2</text><text x="120.625" y="17" font-family="Arial,sans-serif" font-size="5" fill="#b5ccc2" text-anchor="middle">NC2</text><text x="129.375" y="17" font-family="Arial,sans-serif" font-size="5" fill="#b5ccc2" text-anchor="middle">COM3</text><text x="138.125" y="17" font-family="Arial,sans-serif" font-size="5" fill="#b5ccc2" text-anchor="middle">NO3</text><text x="146.875" y="17" font-family="Arial,sans-serif" font-size="5" fill="#b5ccc2" text-anchor="middle">NC3</text><text x="155.625" y="17" font-family="Arial,sans-serif" font-size="5" fill="#b5ccc2" text-anchor="middle">COM4</text><text x="90" y="138" font-family="Arial,sans-serif" font-size="8" fill="#afc3c8" text-anchor="middle">Relay 4 channel</text></svg>
