<svg xmlns="http://www.w3.org/2000/svg" viewBox="0 0 180 140" role="img" aria-labelledby="title" data-component="rj45-breakout" data-model="dsub"><title id="title">RJ45 breakout — GUBI component illustration</title><defs><linearGradient id="metal" x2="0.8" y2="1"><stop stop-color="#e1e5df"/><stop offset=".45" stop-color="#8d9da3"/><stop offset="1" stop-color="#bcc8c8"/></linearGradient><linearGradient id="plastic" x2=".7" y2="1"><stop stop-color="#48535b"/><stop offset="1" stop-color="#1e272e"/></linearGradient></defs><rect x="22" y="22" width="136" height="100" rx="5" fill="#3e716f" stroke="#60978c"/><path d="M34 36H144V107H37" stroke="#ffffff12" stroke-width="1" fill="none" stroke-linecap="round" stroke-linejoin="round"/><circle cx="30" cy="30" r="3.5" fill="#c6af71" stroke="none" stroke-width="1"/><circle cx="30" cy="30" r="1.8" fill="#182c2b" stroke="none" stroke-width="1"/><circle cx="150" cy="30" r="3.5" fill="#c6af71" stroke="none" stroke-width="1"/><circle cx="150" cy="30" r="1.8" fill="#182c2b" stroke="none" stroke-width="1"/><circle cx="30" cy="114" r="3.5" fill="#c6af71" stroke="none" stroke-width="1"/><circle cx="30" cy="114" r="1.8" fill="#182c2b" stroke="none" stroke-width="1"/><circle cx="150" cy="114" r="3.5" fill="#c6af71" stroke="none" stroke-width="1"/><circle cx="150" cy="114" r="1.8" fill="#182c2b" stroke="none" stroke-width="1"/><rect x="36" y="82" width="12" height="5" rx="1" fill="#bdc3b5" stroke="none"/><rect x="38" y="82" width="8" height="5" rx="0" fill="#746e5b" stroke="none"/><rect x="54" y="91" width="12" height="5" rx="1" fill="#bdc3b5" stroke="none"/><rect x="56" y="91" width="8" height="5" rx="0" fill="#746e5b" stroke="none"/><rect x="125" y="40" width="12" height="5" rx="1" fill="#bdc3b5" stroke="none"/><rect x="127" y="40" width="8" height="5" rx="0" fill="#746e5b" stroke="none"/><rect x="130" y="83" width="12" height="5" rx="1" fill="#bdc3b5" stroke="none"/><rect x="132" y="83" width="8" height="5" rx="0" fill="#746e5b" stroke="none"/><circle cx="43" cy="43" r="4" fill="#ad7e56" stroke="none" stroke-width="1"/><circle cx="43" cy="43" r="1.8" fill="#3e4948" stroke="none" stroke-width="1"/><rect x="41" y="31" width="97" height="77" rx="3" fill="url(#metal)" stroke="none"/><rect x="52" y="53" width="75" height="46" rx="1" fill="#203944" stroke="none"/><rect x="58" y="58" width="4" height="19" rx="0" fill="#c6af71" stroke="none"/><rect x="65.75" y="58" width="4" height="19" rx="0" fill="#c6af71" stroke="none"/><rect x="73.5" y="58" width="4" height="19" rx="0" fill="#c6af71" stroke="none"/><rect x="81.25" y="58" width="4" height="19" rx="0" fill="#c6af71" stroke="none"/><rect x="89" y="58" width="4" height="19" rx="0" fill="#c6af71" stroke="none"/><rect x="96.75" y="58" width="4" height="19" rx="0" fill="#c6af71" stroke="none"/><rect x="104.5" y="58" width="4" height="19" rx="0" fill="#c6af71" stroke="none"/><rect x="112.25" y="58" width="4" height="19" rx="0" fill="#c6af71" stroke="none"/><rect x="44" y="112" width="96" height="10" rx="1" fill="#182127" stroke="none"/><rect x="46" y="115" width="4" height="4" rx="0.6" fill="#c6af71" stroke="none"/><circle cx="48" cy="117" r="0.9" fill="#2c3334" stroke="none" stroke-width="1"/><rect x="58" y="115" width="4" height="4" rx="0.6" fill="#c6af71" stroke="none"/><circle cx="60" cy="117" r="0.9" fill="#2c3334" stroke="none" stroke-width="1"/><rect x="70" y="115" width="4" height="4" rx="0.6" fill="#c6af71" stroke="none"/><circle cx="72" cy="117" r="0.9" fill="#2c3334" stroke="none" stroke-width="1"/><rect x="82" y="115" width="4" height="4" rx="0.6" fill="#c6af71" stroke="none"/><circle cx="84" cy="117" r="0.9" fill="#2c3334" stroke="none" stroke-width="1"/><rect x="94" y="115" width="4" height="4" rx="0.6" fill="#c6af71" stroke="none"/><circle cx="96" cy="117" r="0.9" fill="#2c3334" stroke="none" stroke-width="1"/><rect x="106" y="115" width="4" height="4" rx="0.6" fill="#c6af71" stroke="none"/><circle cx="108" cy="117" r="0.9" fill="#2c3334" stroke="none" stroke-width="1"/><rect x="118" y="115" width="4" height="4" rx="0.6" fill="#c6af71" stroke="none"/><circle cx="120" cy="117" r="0.9" fill="#2c3334" stroke="none" stroke-width="1"/><rect x="130" y="115" width="4" height="4" rx="0.6" fill="#c6af71" stroke="none"/><circle cx="132" cy="117" r="0.9" fill="#2c3334" stroke="none" stroke-width="1"/><text x="48" y="109" font-family="Arial,sans-serif" font-size="5" fill="#b5ccc2" text-anchor="middle">1</text><text x="60" y="109" font-family="Arial,sans-serif" font-size="5" fill="#b5ccc2" text-anchor="middle">2</text><text x="72" y="109" font-family="Arial,sans-serif" font-size="5" fill="#b5ccc2" text-anchor="middle">3</text><text x="84" y="109" font-family="Arial,sans-serif" font-size="5" fill="#b5ccc2" text-anchor="middle">4</text><text x="96" y="109" font-family="Arial,sans-serif" font-size="5" fill="#b5ccc2" text-anchor="middle">5</text><text x="108" y="109" font-family="Arial,sans-serif" font-size="5" fill="#b5ccc2" text-anchor="middle">6</text><text x="120" y="109" font-family="Arial,sans-serif" font-size="5" fill="#b5ccc2" text-anchor="middle">7</text><text x="132" y="109" font-family="Arial,sans-serif" font-size="5" fill="#b5ccc2" text-anchor="middle">8</text><text x="90" y="133" font-family="Arial,sans-serif" font-size="8" fill="#afc3c8" text-anchor="middle">RJ45 breakout</text></svg>
