<svg xmlns="http://www.w3.org/2000/svg" viewBox="0 0 180 140" role="img" aria-labelledby="title" data-component="rotary-encoder" data-model="rotary-encoder"><title id="title">Rotary encoder — GUBI component illustration</title><defs><linearGradient id="metal" x2="0.8" y2="1"><stop stop-color="#e1e5df"/><stop offset=".45" stop-color="#8d9da3"/><stop offset="1" stop-color="#bcc8c8"/></linearGradient><linearGradient id="plastic" x2=".7" y2="1"><stop stop-color="#48535b"/><stop offset="1" stop-color="#1e272e"/></linearGradient></defs><rect x="33" y="35" width="113" height="81" rx="5" fill="#285e6a" stroke="#60978c"/><path d="M45 49H132V101H48" stroke="#ffffff12" stroke-width="1" fill="none" stroke-linecap="round" stroke-linejoin="round"/><circle cx="41" cy="43" r="3.5" fill="#c6af71" stroke="none" stroke-width="1"/><circle cx="41" cy="43" r="1.8" fill="#182c2b" stroke="none" stroke-width="1"/><circle cx="138" cy="43" r="3.5" fill="#c6af71" stroke="none" stroke-width="1"/><circle cx="138" cy="43" r="1.8" fill="#182c2b" stroke="none" stroke-width="1"/><circle cx="41" cy="108" r="3.5" fill="#c6af71" stroke="none" stroke-width="1"/><circle cx="41" cy="108" r="1.8" fill="#182c2b" stroke="none" stroke-width="1"/><circle cx="138" cy="108" r="3.5" fill="#c6af71" stroke="none" stroke-width="1"/><circle cx="138" cy="108" r="1.8" fill="#182c2b" stroke="none" stroke-width="1"/><rect x="42" y="109" width="105" height="10" rx="1" fill="#182127" stroke="none"/><rect x="44" y="112" width="4" height="4" rx="0.6" fill="#c6af71" stroke="none"/><circle cx="46" cy="114" r="0.9" fill="#2c3334" stroke="none" stroke-width="1"/><rect x="65" y="112" width="4" height="4" rx="0.6" fill="#c6af71" stroke="none"/><circle cx="67" cy="114" r="0.9" fill="#2c3334" stroke="none" stroke-width="1"/><rect x="86" y="112" width="4" height="4" rx="0.6" fill="#c6af71" stroke="none"/><circle cx="88" cy="114" r="0.9" fill="#2c3334" stroke="none" stroke-width="1"/><rect x="107" y="112" width="4" height="4" rx="0.6" fill="#c6af71" stroke="none"/><circle cx="109" cy="114" r="0.9" fill="#2c3334" stroke="none" stroke-width="1"/><rect x="128" y="112" width="4" height="4" rx="0.6" fill="#c6af71" stroke="none"/><circle cx="130" cy="114" r="0.9" fill="#2c3334" stroke="none" stroke-width="1"/><rect x="52" y="48" width="77" height="58" rx="4" fill="url(#metal)" stroke="none"/><circle cx="90" cy="67" r="30" fill="#aab8b5" stroke="#e1e2d6" stroke-width="2"/><circle cx="90" cy="67" r="20" fill="#506470" stroke="none" stroke-width="1"/><path d="M107 67l5 0" stroke="#c7d7d0" stroke-width="2" fill="none" stroke-linecap="round" stroke-linejoin="round"/><path d="M104.72243186433546 75.5l4.330127018922194 2.4999999999999996" stroke="#c7d7d0" stroke-width="2" fill="none" stroke-linecap="round" stroke-linejoin="round"/><path d="M98.5 81.72243186433546l2.5000000000000004 4.330127018922193" stroke="#c7d7d0" stroke-width="2" fill="none" stroke-linecap="round" stroke-linejoin="round"/><path d="M90 84l3.061616997868383e-16 5" stroke="#c7d7d0" stroke-width="2" fill="none" stroke-linecap="round" stroke-linejoin="round"/><path d="M81.5 81.72243186433546l-2.499999999999999 4.330127018922194" stroke="#c7d7d0" stroke-width="2" fill="none" stroke-linecap="round" stroke-linejoin="round"/><path d="M75.27756813566454 75.5l-4.330127018922194 2.4999999999999996" stroke="#c7d7d0" stroke-width="2" fill="none" stroke-linecap="round" stroke-linejoin="round"/><path d="M73 67l-5 6.123233995736766e-16" stroke="#c7d7d0" stroke-width="2" fill="none" stroke-linecap="round" stroke-linejoin="round"/><path d="M75.27756813566454 58.50000000000001l-4.3301270189221945 -2.4999999999999987" stroke="#c7d7d0" stroke-width="2" fill="none" stroke-linecap="round" stroke-linejoin="round"/><path d="M81.5 52.277568135664545l-2.500000000000002 -4.330127018922193" stroke="#c7d7d0" stroke-width="2" fill="none" stroke-linecap="round" stroke-linejoin="round"/><path d="M90 50l-9.184850993605148e-16 -5" stroke="#c7d7d0" stroke-width="2" fill="none" stroke-linecap="round" stroke-linejoin="round"/><path d="M98.5 52.277568135664545l2.5000000000000004 -4.330127018922193" stroke="#c7d7d0" stroke-width="2" fill="none" stroke-linecap="round" stroke-linejoin="round"/><path d="M104.72243186433545 58.49999999999999l4.330127018922192 -2.500000000000002" stroke="#c7d7d0" stroke-width="2" fill="none" stroke-linecap="round" stroke-linejoin="round"/><circle cx="90" cy="67" r="13" fill="url(#metal)" stroke="none" stroke-width="1"/><text x="90" y="29" font-family="Arial,sans-serif" font-size="7" fill="#9bb5ba" text-anchor="middle">ROTARY ENCODER</text></svg>
