<svg xmlns="http://www.w3.org/2000/svg" viewBox="0 0 220 280"><rect x="4" y="4" width="212" height="272" rx="15" fill="#22766f" stroke="#62a69c" stroke-width="2"/><g fill="#d5d7cf" stroke="#aaa"><circle cx="18" cy="18" r="6"/><circle cx="202" cy="18" r="6"/><circle cx="18" cy="262" r="6"/><circle cx="202" cy="262" r="6"/></g><path d="M40 55H180V210H40Z M70 50V220 M150 50V230" fill="none" stroke="#358c81" stroke-width="3"/><rect x="-1" y="43" width="46" height="54" rx="3" fill="#b7bfc2" stroke="#ebeff0"/><rect x="-1" y="211" width="44" height="33" rx="4" fill="#272f36"/><rect x="78" y="120" width="51" height="103" rx="3" fill="#17272c"/><g stroke="#c6c8ad" stroke-width="4"><path d="M71 130H78 M71 145H78 M71 160H78 M71 175H78 M71 190H78 M71 205H78 M129 130H136 M129 145H136 M129 160H136 M129 175H136 M129 190H136 M129 205H136"/></g><rect x="70" y="85" width="30" height="12" rx="4" fill="#afb8b4"/><circle cx="50" cy="181" r="10" fill="#c0c6c1"/><circle cx="50" cy="181" r="6" fill="#45535a"/><text x="108" y="53" text-anchor="middle" fill="#d2e6df" font-family="sans-serif" font-size="24" font-weight="bold">GUBI</text><text x="108" y="73" text-anchor="middle" fill="#b6d5cd" font-family="sans-serif" font-size="10">UNO · ATmega328P</text><text x="105" y="182" text-anchor="middle" fill="#8a999a" font-family="monospace" font-size="7" transform="rotate(-90 105 182)">ATMEGA328P</text><rect x="180" y="43" width="15" height="188" rx="3" fill="#14282b"/><rect x="28" y="105" width="15" height="100" rx="3" fill="#14282b"/><rect x="149" y="249" width="39" height="10" fill="#182f31"/></svg>
